name ./resultDataOpenSim/trcMotMarkerGrf/sub09/grf-01-08.mot
datacolumns 19
datarows 17
range 1.40800000 1.47200000
endheader

                time	     ground_force_vx	     ground_force_vy	     ground_force_vz	     ground_force_px	     ground_force_py	     ground_force_pz	   l_ground_force_vx	   l_ground_force_vy	   l_ground_force_vz	   l_ground_force_px	   l_ground_force_py	   l_ground_force_pz	     ground_torque_x	     ground_torque_y	     ground_torque_z	   l_ground_torque_x	   l_ground_torque_y	   l_ground_torque_z	
          1.40800000	        -23.96726940	        458.99719044	         -0.05347710	          0.90406665	          0.00000000	          0.13602034	          0.00000000	          0.00000000	          0.00000000	          0.00000000	          0.00000000	          0.00000000	          0.00000000	          0.12116544	          0.00000000	          0.00000000	          0.00000000	          0.00000000	
          1.41200000	        -23.58726685	        454.18560394	         -2.20327980	          0.90501809	          0.00000000	          0.13620462	          0.00000000	          0.00000000	          0.00000000	          0.00000000	          0.00000000	          0.00000000	          0.00000000	          0.27810815	          0.00000000	          0.00000000	          0.00000000	          0.00000000	
          1.41600000	        -25.28715755	        449.79422195	         -6.13073682	          0.90618040	          0.00000000	          0.13647970	          0.00000000	          0.00000000	          0.00000000	          0.00000000	          0.00000000	          0.00000000	          0.00000000	          0.53269778	          0.00000000	          0.00000000	          0.00000000	          0.00000000	
          1.42000000	        -27.99671053	        445.66377010	        -11.02363346	          0.90741976	          0.00000000	          0.13682511	          0.00000000	          0.00000000	          0.00000000	          0.00000000	          0.00000000	          0.00000000	          0.00000000	          0.83191123	          0.00000000	          0.00000000	          0.00000000	          0.00000000	
          1.42400000	        -30.44997873	        441.69249428	        -15.94336462	          0.90855494	          0.00000000	          0.13720226	          0.00000000	          0.00000000	          0.00000000	          0.00000000	          0.00000000	          0.00000000	          0.00000000	          1.11313317	          0.00000000	          0.00000000	          0.00000000	          0.00000000	
          1.42800000	        -31.54446142	        437.86256957	        -20.00151828	          0.90942289	          0.00000000	          0.13756698	          0.00000000	          0.00000000	          0.00000000	          0.00000000	          0.00000000	          0.00000000	          0.00000000	          1.32267212	          0.00000000	          0.00000000	          0.00000000	          0.00000000	
          1.43200000	        -30.63040107	        434.21525548	        -22.51603180	          0.90991992	          0.00000000	          0.13788413	          0.00000000	          0.00000000	          0.00000000	          0.00000000	          0.00000000	          0.00000000	          0.00000000	          1.42894286	          0.00000000	          0.00000000	          0.00000000	          0.00000000	
          1.43600000	        -27.64655388	        430.81863485	        -23.12339125	          0.91003887	          0.00000000	          0.13813994	          0.00000000	          0.00000000	          0.00000000	          0.00000000	          0.00000000	          0.00000000	          0.00000000	          1.42826404	          0.00000000	          0.00000000	          0.00000000	          0.00000000	
          1.44000000	        -23.08913432	        427.75379269	        -21.83387785	          0.90986027	          0.00000000	          0.13833427	          0.00000000	          0.00000000	          0.00000000	          0.00000000	          0.00000000	          0.00000000	          0.00000000	          1.34400068	          0.00000000	          0.00000000	          0.00000000	          0.00000000	
          1.44400000	        -17.84924332	        425.11004659	        -19.01115626	          0.90953287	          0.00000000	          0.13846704	          0.00000000	          0.00000000	          0.00000000	          0.00000000	          0.00000000	          0.00000000	          0.00000000	          1.22060652	          0.00000000	          0.00000000	          0.00000000	          0.00000000	
          1.44800000	        -12.96701340	        422.98451825	        -15.27606827	          0.90924116	          0.00000000	          0.13854039	          0.00000000	          0.00000000	          0.00000000	          0.00000000	          0.00000000	          0.00000000	          0.00000000	          1.11363387	          0.00000000	          0.00000000	          0.00000000	          0.00000000	
          1.45200000	         -9.35650210	        421.48131964	        -11.36914988	          0.90914346	          0.00000000	          0.13855154	          0.00000000	          0.00000000	          0.00000000	          0.00000000	          0.00000000	          0.00000000	          0.00000000	          1.07663134	          0.00000000	          0.00000000	          0.00000000	          0.00000000	
          1.45600000	         -7.56663638	        420.69062437	         -8.01671118	          0.90933632	          0.00000000	          0.13850204	          0.00000000	          0.00000000	          0.00000000	          0.00000000	          0.00000000	          0.00000000	          0.00000000	          1.14704114	          0.00000000	          0.00000000	          0.00000000	          0.00000000	
          1.46000000	         -7.63959173	        420.65565924	         -5.81846299	          0.90983164	          0.00000000	          0.13841341	          0.00000000	          0.00000000	          0.00000000	          0.00000000	          0.00000000	          0.00000000	          0.00000000	          1.33499718	          0.00000000	          0.00000000	          0.00000000	          0.00000000	
          1.46400000	         -9.10271829	        421.35781840	         -5.15555022	          0.91054104	          0.00000000	          0.13831962	          0.00000000	          0.00000000	          0.00000000	          0.00000000	          0.00000000	          0.00000000	          0.00000000	          1.61945410	          0.00000000	          0.00000000	          0.00000000	          0.00000000	
          1.46800000	        -11.10024266	        422.73348793	         -6.12815081	          0.91130608	          0.00000000	          0.13825880	          0.00000000	          0.00000000	          0.00000000	          0.00000000	          0.00000000	          0.00000000	          0.00000000	          1.95409076	          0.00000000	          0.00000000	          0.00000000	          0.00000000	
          1.47200000	        -12.63478921	        424.71532951	         -8.53489018	          0.91194661	          0.00000000	          0.13826129	          0.00000000	          0.00000000	          0.00000000	          0.00000000	          0.00000000	          0.00000000	          0.00000000	          2.28151331	          0.00000000	          0.00000000	          0.00000000	          0.00000000	
